<svg version="1" xmlns="http://www.w3.org/2000/svg" width="682.667" height="682.667" viewBox="0 0 512.000000 512.000000"><path d="M123 62.1c-11.5 1.4-20.3 4-30 8.6-16.4 7.8-28.2 22.2-33.3 40.3-3.4 12.1-4 18.4-4.7 52.5-.7 37.4-1.2 41.1-6.3 48.5-3.2 4.8-9.9 9.7-16 11.6-3.2 1-10.4 1.8-18.9 2.1l-13.8.6V266h10.6c19.2 0 30.4 4.3 37.1 14.3 6.4 9.6 6.5 10.8 7.3 59.2.6 35.9 1.1 45.4 2.5 51.5 3.9 17.4 9.2 27.8 19 37.5 14.9 15 36.1 21.5 70 21.5H159v-39h-10.7c-22 0-34.6-5.9-41.4-19.3-4.9-9.5-5.1-11.8-5.9-58.2-.6-40.3-.9-44.6-2.8-51.7-3.7-13.5-9.3-22.1-18-27.7-5.4-3.5-15.2-7.1-19.1-7.1-3.6 0-1.5-1.4 4.4-2.9 17.7-4.4 27.8-14.6 33.1-33.6 1.3-4.8 1.8-12.9 2.4-41.5.5-21.1 1.3-37.3 1.9-40 2.8-10.6 9.9-19.9 18.8-24.4 5.7-2.9 15.5-4.6 26.6-4.6H159V61l-14.7.1c-8.2.1-17.7.5-21.3 1zM353 80.5V100h10.8c21.4 0 33.8 5.6 40.6 18 5.6 10.3 5.8 12 6.6 59.5.6 40.3.9 44.6 2.8 51.7 3.7 13.5 9.3 22.1 18 27.7 5.4 3.5 15.2 7.1 19.1 7.1 3.6 0 1.5 1.4-4.4 2.9-17.7 4.4-27.8 14.6-33.1 33.6-1.3 4.8-1.8 12.9-2.4 41.5-.5 21.1-1.3 37.3-1.9 40-2.8 10.6-9.9 19.9-18.8 24.4-5.7 2.9-15.5 4.6-26.5 4.6H353v39h13.3c23.7 0 37.8-2.6 52.7-9.7 16.3-7.8 28.2-22.1 33.3-40.3 3.4-12.1 4-18.4 4.7-52.5.7-37.4 1.2-41.1 6.3-48.5 3.2-4.8 9.9-9.7 16-11.6 3.2-1 10.4-1.8 19-2.1l13.7-.6V245h-10.6c-19.2 0-30.4-4.3-37.1-14.3-6.4-9.6-6.5-10.8-7.3-59.2-.6-35.9-1.1-45.4-2.5-51.5-3.9-17.4-9.2-27.8-19-37.5-14.9-15-36.1-21.5-70-21.5H353v19.5z"/><path d="M158.2 126.1c-2.5 1.3-5.5 3.9-7 6.2-2.3 3.5-2.7 5.1-2.7 11.6.1 8.8 2.2 13.8 8.3 19.9 5.2 5.2 10.5 7.5 18.3 8 8.2.5 13.6-1.9 17.6-8 2.4-3.6 2.8-5.1 2.8-11.7 0-8.9-1.9-13.5-8-19.6-5.4-5.5-10.7-7.8-18.5-8.3-5.2-.2-7.4.1-10.8 1.9zM275 185.6v19.6l-2.7-.6c-1.6-.3-15.8-2.9-31.8-5.8-27.1-4.9-30.1-5.2-45.5-5.3-17.9 0-22.1.7-28.8 5.2-5.7 3.8-9.8 9.6-12.4 17.3-1.9 5.9-2.2 9-2.6 34.2l-.4 27.7 2.4.6c1.2.2 7.5 1.4 13.8 2.5 6.3 1.1 12.7 2.3 14.3 2.6l2.7.6v-18.4c0-10.1.4-19.9 1-21.7 2.3-8.1 10.4-11.9 22.9-10.7 5.5.5 92.8 15.5 99.9 17.1l2.2.5-.2-39.7-.3-39.7-15.5-2.7c-8.5-1.5-16.3-2.8-17.2-2.8-1.7-.1-1.8 1.5-1.8 19.5zM341 212.1c-7.2 2.9-12 11-12 20.2 0 25.1 33 39.9 46.5 20.8 2.7-3.9 3-5 3-12.4 0-6.5-.5-9.1-2.3-12.4-5.6-10.7-15.9-17.3-26.6-17.2-3.4 0-7.2.5-8.6 1zM179.1 290.6C158.8 296 148 312.5 148 338c0 33.7 21 60.5 55.2 70.4 18.3 5.3 36 5.5 49.2.5 24.7-9.2 33.3-46.4 18-77.7-12.8-26.3-41.8-42.4-75.8-42.1-5.5 0-12.5.7-15.5 1.5zm40.4 32.8c9.6 2.7 16.1 6.1 21.9 11.6 7.1 6.7 10 13.2 10 22.5 0 16.3-8 23.1-26.9 22.8-21.6-.4-40.6-9.7-47.2-23.1-2.3-4.7-2.8-7-2.7-13.2 0-11.5 4.2-17.9 14.3-21.7 4.7-1.8 22.4-1.1 30.6 1.1z"/></svg>